<?xml version="1.0" standalone="no"?>
<!DOCTYPE svg PUBLIC "-//W3C//DTD SVG 20010904//EN"
 "http://www.w3.org/TR/2001/REC-SVG-20010904/DTD/svg10.dtd">
<svg version="1.0" xmlns="http://www.w3.org/2000/svg"
 width="512.000000pt" height="512.000000pt" viewBox="0 0 512.000000 512.000000"
 preserveAspectRatio="xMidYMid meet">
<metadata>
Created by potrace 1.14, written by Peter Selinger 2001-2017
</metadata>
<g transform="translate(0.000000,512.000000) scale(0.100000,-0.100000)"
fill="#000000" stroke="none">
<path d="M2419 4966 c-2 -2 -35 -7 -74 -10 -38 -4 -79 -8 -90 -11 -11 -2 -30
-4 -43 -4 -22 -1 -23 -4 -18 -48 16 -132 18 -163 10 -163 -30 -2 -95 -14 -149
-29 l-63 -18 -10 36 c-6 20 -16 62 -22 93 -10 53 -13 57 -31 48 -10 -6 -19 -8
-19 -6 0 6 -182 -59 -224 -80 -16 -8 -33 -14 -38 -14 -5 0 -20 -8 -35 -17 -14
-10 -32 -18 -40 -19 -8 -1 -20 -7 -27 -13 -7 -6 -44 -27 -82 -47 -38 -20 -126
-74 -197 -121 l-127 -85 -1 -52 c-1 -55 -7 -142 -12 -166 -5 -26 -23 -51 -73
-102 -67 -68 -115 -94 -209 -112 -44 -9 -93 -18 -110 -22 -16 -3 -41 -7 -55
-8 -14 -2 -28 -4 -32 -4 -8 -2 -97 -143 -97 -155 0 -4 -10 -17 -20 -29 -11
-11 -18 -25 -15 -30 3 -4 0 -8 -5 -8 -6 0 -11 -7 -11 -15 0 -8 -5 -15 -10 -15
-6 0 -9 -3 -8 -7 1 -5 -21 -55 -49 -113 -47 -98 -103 -229 -103 -243 0 -3 -5
-18 -12 -34 -11 -28 -12 -32 -22 -68 -3 -11 -17 -60 -31 -110 -17 -62 -21 -91
-14 -96 6 -4 45 -12 86 -19 l75 -12 -6 -41 c-3 -23 -11 -67 -17 -98 -12 -63 2
-58 -130 -45 -74 8 -73 9 -79 -64 -8 -79 -5 -453 3 -521 8 -71 44 -270 50
-275 4 -5 47 8 127 38 36 13 71 24 79 24 13 -1 34 -48 46 -100 2 -12 9 -38 14
-58 6 -26 5 -40 -3 -46 -21 -15 -88 -42 -119 -49 -10 -1 -31 -10 -47 -18 -31
-16 -31 -18 -3 -85 3 -8 7 -22 9 -31 3 -14 24 -63 84 -194 12 -27 33 -66 46
-87 13 -21 21 -38 17 -38 -5 0 -1 -5 7 -10 8 -5 15 -13 15 -18 0 -17 120 -192
133 -192 6 0 12 5 12 10 0 6 6 10 13 10 7 0 34 20 60 45 26 24 47 41 47 38 0
-4 10 4 22 16 l21 23 26 -33 c14 -18 41 -49 58 -69 l33 -37 -85 -82 -84 -82
80 -82 c43 -44 79 -78 79 -74 0 3 20 -14 45 -40 25 -25 45 -42 45 -38 0 5 10
-3 23 -16 175 -181 512 -376 827 -478 268 -87 428 -109 750 -106 339 4 499 34
805 150 201 76 535 271 624 364 19 20 31 29 26 21 -5 -8 10 5 33 29 23 24 42
40 42 37 0 -4 29 22 65 58 36 37 70 66 75 66 6 0 8 4 5 10 -3 5 2 10 11 10 10
0 15 2 12 5 -2 3 30 40 71 82 199 203 404 558 502 868 22 70 21 66 12 63 -7
-2 -184 51 -190 56 -1 1 6 31 16 66 11 36 22 78 25 93 8 32 14 32 128 -2 37
-11 70 -16 73 -12 2 5 7 30 10 57 2 27 7 58 9 70 11 52 20 189 20 304 0 120
-11 326 -18 339 -2 3 -7 30 -10 60 -4 29 -8 57 -11 61 -2 4 -44 1 -92 -6 -48
-8 -93 -14 -100 -14 -13 0 -19 17 -28 76 -3 22 -9 54 -14 71 -11 39 -4 50 39
54 19 2 39 5 45 8 5 3 18 6 30 8 11 1 29 5 40 7 11 2 23 5 28 5 4 1 5 11 2 24
-4 13 -7 30 -9 38 -2 11 -18 67 -31 109 -41 130 -202 484 -229 502 -7 5 -7 8
-1 8 6 0 2 7 -8 14 -10 8 -18 17 -17 20 0 4 -6 19 -15 35 -16 32 -27 37 -90
46 -119 17 -223 40 -242 53 -13 8 -23 11 -23 8 0 -4 -6 -2 -12 3 -7 6 -33 26
-58 44 -79 58 -89 81 -84 199 2 56 6 110 10 120 7 24 -21 50 -144 131 -39 26
-76 47 -82 47 -5 0 -10 4 -10 9 0 24 -485 241 -541 241 -13 0 -24 -18 -40 -67
-13 -38 -23 -72 -24 -78 0 -13 -23 -14 -55 -2 -14 5 -33 11 -42 13 -34 8 -63
14 -96 20 -18 3 -34 10 -37 14 -3 5 3 45 14 89 22 97 25 93 -94 111 -74 11
-507 24 -516 16z"/>
</g>
</svg>
